<svg width="67" height="67" viewBox="0 0 67 67" fill="none" xmlns="http://www.w3.org/2000/svg">
<rect width="67" height="67" fill="white"/>
<path fill-rule="evenodd" clip-rule="evenodd" d="M49.2148 28.3154C46.0237 33.3505 40.4022 36.6929 34 36.6929C27.4305 36.6929 21.683 33.1735 18.54 27.9172L16.911 28.8189C16.1381 29.2384 15.4093 29.8347 14.7689 30.5634C13.8414 31.6014 14.1506 33.2576 15.3652 33.9643L32.3693 43.8134C33.076 44.2109 33.9373 44.2109 34.6218 43.8134L51.626 33.9643C52.8406 33.2576 53.1498 31.6014 52.2664 30.5634C51.626 29.8568 50.8973 29.2384 50.1243 28.8189L49.2148 28.3154ZM32.2413 62.9774V47.9165C32.2413 47.0994 31.7996 46.3486 31.1371 45.929L15.2592 36.7203C13.7575 35.859 11.9246 36.9632 11.9246 38.7078V50.1028C11.9246 53.2607 14.1329 57.1032 16.8271 58.6269C16.8271 58.6269 24.49 62.8007 29.0392 65.0311C30.5408 65.7599 32.2413 64.6557 32.2413 62.9774ZM34.7588 62.9774V47.9165C34.7588 47.0994 35.2004 46.3486 35.8629 45.929L51.7408 36.7203C53.2425 35.859 55.0754 36.9632 55.0754 38.7078V50.1028C55.0754 53.2607 52.8671 57.1032 50.1729 58.6269C50.1729 58.6269 42.51 62.8007 37.9608 65.0311C36.4592 65.7599 34.7588 64.6557 34.7588 62.9774Z" fill="black"/>
<path d="M33.7709 10.8119V18.3715M47 18.7494C47 26.0519 41.0734 31.9786 33.7709 31.9786C26.4684 31.9786 20.5417 26.0519 20.5417 18.7494C20.5417 11.4469 26.4684 5.52026 33.7709 5.52026C41.0734 5.52026 47 11.4469 47 18.7494Z" stroke="black" stroke-width="2.26786" stroke-linecap="round" stroke-linejoin="round"/>
<path d="M29.2351 1.74052H38.3065" stroke="black" stroke-width="2.26786" stroke-miterlimit="10" stroke-linecap="round" stroke-linejoin="round"/>
</svg>
